<svg width="308" height="50" viewBox="0 0 308 50" fill="none" xmlns="http://www.w3.org/2000/svg">
<circle cx="22" cy="25.2499" r="20.5" stroke="white" stroke-width="3"/>
<path d="M36.4957 10.7543C38.5071 12.7657 39.1309 16.1628 38.0473 20.3769C36.9733 24.5532 34.271 29.2425 30.1317 33.3817C25.9925 37.521 21.3032 40.2233 17.1269 41.2973C12.9128 42.381 9.51571 41.7571 7.5043 39.7457C5.4929 37.7343 4.86905 34.3372 5.95267 30.1231C7.02667 25.9469 9.72901 21.2575 13.8683 17.1183C18.0075 12.979 22.6968 10.2767 26.8731 9.2027C31.0872 8.11908 34.4843 8.74292 36.4957 10.7543Z" stroke="white" stroke-width="3"/>
<path d="M7.50415 10.7543C9.51555 8.74285 12.9126 8.119 17.1267 9.20263C21.303 10.2766 25.9923 12.979 30.1316 17.1182C34.2708 21.2575 36.9732 25.9468 38.0472 30.123C39.1308 34.3371 38.5069 37.7342 36.4955 39.7456C34.4841 41.757 31.087 42.3809 26.8729 41.2973C22.6967 40.2233 18.0074 37.5209 13.8681 33.3817C9.72885 29.2424 7.02651 24.5531 5.95252 20.3768C4.86889 16.1628 5.49274 12.7657 7.50415 10.7543Z" stroke="white" stroke-width="3"/>
<path d="M68.72 40.4C66.9867 40.4 65.4 40.1867 63.96 39.76C62.5467 39.3333 61.28 38.7067 60.16 37.88C59.0667 37.0533 58.08 36.0533 57.2 34.88L60.96 30.6C62.2667 32.4133 63.56 33.6533 64.84 34.32C66.1467 34.96 67.56 35.28 69.08 35.28C69.9067 35.28 70.64 35.1733 71.28 34.96C71.9467 34.72 72.4667 34.3867 72.84 33.96C73.2133 33.5333 73.4 33.0267 73.4 32.44C73.4 32.0133 73.3067 31.6267 73.12 31.28C72.9333 30.9067 72.6667 30.5867 72.32 30.32C71.9733 30.0267 71.56 29.7733 71.08 29.56C70.6 29.32 70.0667 29.12 69.48 28.96C68.8933 28.7733 68.2533 28.6267 67.56 28.52C66.0667 28.1733 64.76 27.76 63.64 27.28C62.52 26.7733 61.5867 26.16 60.84 25.44C60.0933 24.6933 59.5333 23.8533 59.16 22.92C58.8133 21.9867 58.64 20.9333 58.64 19.76C58.64 18.56 58.9067 17.4533 59.44 16.44C59.9733 15.4 60.7067 14.5067 61.64 13.76C62.6 13.0133 63.6933 12.44 64.92 12.04C66.1733 11.64 67.4933 11.44 68.88 11.44C70.5867 11.44 72.08 11.64 73.36 12.04C74.64 12.4133 75.7467 12.96 76.68 13.68C77.64 14.4 78.44 15.28 79.08 16.32L75.28 20C74.72 19.2533 74.1067 18.6267 73.44 18.12C72.8 17.6133 72.0933 17.24 71.32 17C70.5733 16.7333 69.8 16.6 69 16.6C68.12 16.6 67.36 16.72 66.72 16.96C66.08 17.1733 65.5733 17.4933 65.2 17.92C64.8533 18.3467 64.68 18.8667 64.68 19.48C64.68 19.96 64.8 20.3867 65.04 20.76C65.28 21.1333 65.6267 21.4667 66.08 21.76C66.5333 22.0267 67.08 22.2667 67.72 22.48C68.36 22.6933 69.0667 22.88 69.84 23.04C71.3067 23.3333 72.6267 23.72 73.8 24.2C74.9733 24.68 75.9733 25.2667 76.8 25.96C77.6533 26.6267 78.3067 27.4267 78.76 28.36C79.2133 29.2667 79.44 30.2933 79.44 31.44C79.44 33.3333 78.9867 34.9467 78.08 36.28C77.1733 37.6133 75.92 38.64 74.32 39.36C72.72 40.0533 70.8533 40.4 68.72 40.4ZM91.9944 40.4C90.2344 40.4 88.6477 39.92 87.2344 38.96C85.821 38 84.701 36.6933 83.8744 35.04C83.0477 33.3867 82.6344 31.4933 82.6344 29.36C82.6344 27.2267 83.0477 25.3467 83.8744 23.72C84.7277 22.0667 85.8744 20.7733 87.3144 19.84C88.7544 18.88 90.3944 18.4 92.2344 18.4C93.2744 18.4 94.221 18.56 95.0744 18.88C95.9544 19.1733 96.7144 19.5867 97.3544 20.12C98.021 20.6533 98.581 21.2667 99.0344 21.96C99.4877 22.6533 99.8077 23.4 99.9944 24.2L98.7944 24V18.84H104.434V40H98.7144V34.92L99.9944 34.8C99.781 35.5467 99.4344 36.2533 98.9544 36.92C98.4744 37.5867 97.8744 38.1867 97.1544 38.72C96.461 39.2267 95.6744 39.64 94.7944 39.96C93.9144 40.2533 92.981 40.4 91.9944 40.4ZM93.5544 35.48C94.621 35.48 95.5544 35.2267 96.3544 34.72C97.1544 34.2133 97.7677 33.5067 98.1944 32.6C98.6477 31.6667 98.8744 30.5867 98.8744 29.36C98.8744 28.16 98.6477 27.1067 98.1944 26.2C97.7677 25.2933 97.1544 24.5867 96.3544 24.08C95.5544 23.5467 94.621 23.28 93.5544 23.28C92.5144 23.28 91.5944 23.5467 90.7944 24.08C90.021 24.5867 89.4077 25.2933 88.9544 26.2C88.501 27.1067 88.2744 28.16 88.2744 29.36C88.2744 30.5867 88.501 31.6667 88.9544 32.6C89.4077 33.5067 90.021 34.2133 90.7944 34.72C91.5944 35.2267 92.5144 35.48 93.5544 35.48ZM110.169 40V10.4H115.849V40H110.169ZM129.143 40.4C127.383 40.4 125.796 39.92 124.383 38.96C122.969 38 121.849 36.6933 121.023 35.04C120.196 33.3867 119.783 31.4933 119.783 29.36C119.783 27.2267 120.196 25.3467 121.023 23.72C121.876 22.0667 123.023 20.7733 124.463 19.84C125.903 18.88 127.543 18.4 129.383 18.4C130.423 18.4 131.369 18.56 132.223 18.88C133.103 19.1733 133.863 19.5867 134.503 20.12C135.169 20.6533 135.729 21.2667 136.183 21.96C136.636 22.6533 136.956 23.4 137.143 24.2L135.943 24V18.84H141.583V40H135.863V34.92L137.143 34.8C136.929 35.5467 136.583 36.2533 136.103 36.92C135.623 37.5867 135.023 38.1867 134.303 38.72C133.609 39.2267 132.823 39.64 131.943 39.96C131.063 40.2533 130.129 40.4 129.143 40.4ZM130.703 35.48C131.769 35.48 132.703 35.2267 133.503 34.72C134.303 34.2133 134.916 33.5067 135.343 32.6C135.796 31.6667 136.023 30.5867 136.023 29.36C136.023 28.16 135.796 27.1067 135.343 26.2C134.916 25.2933 134.303 24.5867 133.503 24.08C132.703 23.5467 131.769 23.28 130.703 23.28C129.663 23.28 128.743 23.5467 127.943 24.08C127.169 24.5867 126.556 25.2933 126.103 26.2C125.649 27.1067 125.423 28.16 125.423 29.36C125.423 30.5867 125.649 31.6667 126.103 32.6C126.556 33.5067 127.169 34.2133 127.943 34.72C128.743 35.2267 129.663 35.48 130.703 35.48ZM147.278 40V18.84H152.758L152.958 25.64L151.998 24.24C152.318 23.1467 152.838 22.16 153.558 21.28C154.278 20.3733 155.118 19.6667 156.078 19.16C157.064 18.6533 158.091 18.4 159.158 18.4C159.611 18.4 160.051 18.44 160.478 18.52C160.904 18.6 161.264 18.6933 161.558 18.8L160.038 25.04C159.718 24.88 159.331 24.7467 158.878 24.64C158.424 24.5067 157.958 24.44 157.478 24.44C156.838 24.44 156.238 24.56 155.678 24.8C155.144 25.0133 154.678 25.3333 154.278 25.76C153.878 26.16 153.558 26.64 153.318 27.2C153.104 27.76 152.998 28.3733 152.998 29.04V40H147.278ZM167.777 49.2L172.417 38.32L172.497 41.6L162.177 18.84H168.617L173.777 31.04C173.99 31.4933 174.19 32.0267 174.377 32.64C174.59 33.2267 174.763 33.8 174.897 34.36L173.937 34.76C174.097 34.3067 174.283 33.7867 174.497 33.2C174.71 32.6133 174.923 31.9867 175.137 31.32L179.577 18.84H186.057L177.177 40L173.537 49.2H167.777ZM189.913 40V12H202.073C203.94 12 205.513 12.28 206.793 12.84C208.1 13.3733 209.087 14.16 209.753 15.2C210.42 16.24 210.753 17.48 210.753 18.92C210.753 20.52 210.353 21.8533 209.553 22.92C208.753 23.9867 207.607 24.72 206.113 25.12L206.073 24.32C207.3 24.6133 208.38 25.0933 209.313 25.76C210.247 26.4267 210.967 27.2533 211.473 28.24C211.98 29.2267 212.233 30.3467 212.233 31.6C212.233 32.9867 212.007 34.2133 211.553 35.28C211.1 36.32 210.433 37.1867 209.553 37.88C208.673 38.5733 207.633 39.1067 206.433 39.48C205.26 39.8267 203.94 40 202.473 40H189.913ZM195.673 34.8H202.233C203.087 34.8 203.807 34.68 204.393 34.44C205.007 34.1733 205.473 33.7733 205.793 33.24C206.113 32.7067 206.273 32.08 206.273 31.36C206.273 30.6667 206.1 30.08 205.753 29.6C205.407 29.12 204.913 28.76 204.273 28.52C203.66 28.2533 202.913 28.12 202.033 28.12H195.673V34.8ZM195.673 23.36H201.353C202.073 23.36 202.7 23.2267 203.233 22.96C203.767 22.6933 204.167 22.3333 204.433 21.88C204.727 21.4267 204.873 20.8933 204.873 20.28C204.873 19.2933 204.553 18.5333 203.913 18C203.273 17.4667 202.313 17.2 201.033 17.2H195.673V23.36ZM226.688 40.4C224.528 40.4 222.594 39.9333 220.888 39C219.208 38.04 217.874 36.7333 216.888 35.08C215.928 33.4267 215.448 31.5333 215.448 29.4C215.448 27.2667 215.928 25.3867 216.888 23.76C217.874 22.1067 219.208 20.8 220.888 19.84C222.594 18.88 224.528 18.4 226.688 18.4C228.821 18.4 230.728 18.88 232.408 19.84C234.114 20.8 235.448 22.1067 236.408 23.76C237.368 25.3867 237.848 27.2667 237.848 29.4C237.848 31.5333 237.368 33.4267 236.408 35.08C235.448 36.7333 234.114 38.04 232.408 39C230.728 39.9333 228.821 40.4 226.688 40.4ZM226.688 35.44C227.728 35.44 228.661 35.1867 229.488 34.68C230.314 34.1467 230.954 33.4267 231.408 32.52C231.888 31.5867 232.128 30.5467 232.128 29.4C232.128 28.2267 231.888 27.1867 231.408 26.28C230.954 25.3467 230.314 24.6267 229.488 24.12C228.661 23.5867 227.728 23.32 226.688 23.32C225.621 23.32 224.674 23.5867 223.848 24.12C223.021 24.6533 222.368 25.3733 221.888 26.28C221.408 27.1867 221.181 28.2267 221.208 29.4C221.181 30.5467 221.408 31.5867 221.888 32.52C222.368 33.4267 223.021 34.1467 223.848 34.68C224.674 35.1867 225.621 35.44 226.688 35.44ZM250.041 40.4C248.281 40.4 246.695 39.92 245.281 38.96C243.868 38 242.748 36.6933 241.921 35.04C241.095 33.3867 240.681 31.4933 240.681 29.36C240.681 27.2267 241.095 25.3467 241.921 23.72C242.775 22.0667 243.921 20.7733 245.361 19.84C246.801 18.88 248.441 18.4 250.281 18.4C251.321 18.4 252.268 18.56 253.121 18.88C254.001 19.1733 254.761 19.5867 255.401 20.12C256.068 20.6533 256.628 21.2667 257.081 21.96C257.535 22.6533 257.855 23.4 258.041 24.2L256.841 24V18.84H262.481V40H256.761V34.92L258.041 34.8C257.828 35.5467 257.481 36.2533 257.001 36.92C256.521 37.5867 255.921 38.1867 255.201 38.72C254.508 39.2267 253.721 39.64 252.841 39.96C251.961 40.2533 251.028 40.4 250.041 40.4ZM251.601 35.48C252.668 35.48 253.601 35.2267 254.401 34.72C255.201 34.2133 255.815 33.5067 256.241 32.6C256.695 31.6667 256.921 30.5867 256.921 29.36C256.921 28.16 256.695 27.1067 256.241 26.2C255.815 25.2933 255.201 24.5867 254.401 24.08C253.601 23.5467 252.668 23.28 251.601 23.28C250.561 23.28 249.641 23.5467 248.841 24.08C248.068 24.5867 247.455 25.2933 247.001 26.2C246.548 27.1067 246.321 28.16 246.321 29.36C246.321 30.5867 246.548 31.6667 247.001 32.6C247.455 33.5067 248.068 34.2133 248.841 34.72C249.641 35.2267 250.561 35.48 251.601 35.48ZM268.176 40V18.84H273.656L273.856 25.64L272.896 24.24C273.216 23.1467 273.736 22.16 274.456 21.28C275.176 20.3733 276.016 19.6667 276.976 19.16C277.963 18.6533 278.989 18.4 280.056 18.4C280.509 18.4 280.949 18.44 281.376 18.52C281.803 18.6 282.163 18.6933 282.456 18.8L280.936 25.04C280.616 24.88 280.229 24.7467 279.776 24.64C279.323 24.5067 278.856 24.44 278.376 24.44C277.736 24.44 277.136 24.56 276.576 24.8C276.043 25.0133 275.576 25.3333 275.176 25.76C274.776 26.16 274.456 26.64 274.216 27.2C274.003 27.76 273.896 28.3733 273.896 29.04V40H268.176ZM293.097 40.4C291.257 40.4 289.603 39.9333 288.137 39C286.67 38.04 285.51 36.7467 284.657 35.12C283.83 33.4667 283.417 31.56 283.417 29.4C283.417 27.2933 283.83 25.4133 284.657 23.76C285.51 22.1067 286.657 20.8 288.097 19.84C289.563 18.88 291.23 18.4 293.097 18.4C294.083 18.4 295.03 18.56 295.937 18.88C296.87 19.1733 297.697 19.5867 298.417 20.12C299.163 20.6533 299.763 21.2533 300.217 21.92C300.67 22.56 300.923 23.24 300.977 23.96L299.537 24.2V10.4H305.217V40H299.857L299.617 35.12L300.737 35.24C300.683 35.9067 300.443 36.5467 300.017 37.16C299.59 37.7733 299.017 38.3333 298.297 38.84C297.603 39.32 296.803 39.7067 295.897 40C295.017 40.2667 294.083 40.4 293.097 40.4ZM294.377 35.68C295.443 35.68 296.377 35.4133 297.177 34.88C297.977 34.3467 298.603 33.6133 299.057 32.68C299.51 31.7467 299.737 30.6533 299.737 29.4C299.737 28.1733 299.51 27.0933 299.057 26.16C298.603 25.2 297.977 24.4667 297.177 23.96C296.377 23.4267 295.443 23.16 294.377 23.16C293.31 23.16 292.377 23.4267 291.577 23.96C290.803 24.4667 290.19 25.2 289.737 26.16C289.31 27.0933 289.097 28.1733 289.097 29.4C289.097 30.6533 289.31 31.7467 289.737 32.68C290.19 33.6133 290.803 34.3467 291.577 34.88C292.377 35.4133 293.31 35.68 294.377 35.68Z" fill="white"/>
</svg>
